<?xml version="1.0" encoding="utf-8"?>
<!-- Generator: Adobe Illustrator 22.1.0, SVG Export Plug-In . SVG Version: 6.00 Build 0)  -->
<svg version="1.1" id="Camada_1" xmlns="http://www.w3.org/2000/svg" xmlns:xlink="http://www.w3.org/1999/xlink" x="0px" y="0px"
	 viewBox="0 0 2000 2000" style="enable-background:new 0 0 2000 2000;" xml:space="preserve">
<style type="text/css">
	.st0{fill:none;stroke:#000000;stroke-width:1.3;stroke-miterlimit:10;}
</style>
<g>
	<g>
		<path d="M916.8,452.8c-16.2-2.5-29.8,6.4-36.2,20.9c-7,15.8-9.8,34.4-12.2,51.4c-0.9,6.6-8.7,45,4.9,43.9c2.9-0.2,4.1-3.1,5.8-5
			c3-3.1,7.4-3.6,11.4-4.2c6.5-1,11.9-3.1,13.5-10c0.6-2.5,0.5-5.6-0.1-8.1c-0.2-0.9-0.9-3.7-1.8-1.5c-2.4,5.8-9.6,6-14.9,6.9
			c-2.4,0.4-4.8,1-7,2.3c-2.1,1.3-2.9,3.3-4.7,4.8c-1.2,1.1-2.3,1.7-4,1.3c0.3,0.1-4.2-3-3.1-0.8c-0.4-0.8,0.4-4.8,0.5-5.7
			c0.2-1.9,0.4-3.9,0.6-5.8c0.8-7.6,1.9-15.1,3.3-22.6c2.5-13.4,4.8-28.3,11.4-40.5c3.2-5.9,7.6-10.5,13.5-13.7
			c6.1-3.4,13-4.8,19.2-7.9C917.8,458.1,917.8,453,916.8,452.8L916.8,452.8z"/>
	</g>
</g>
<g>
	<g>
		<path d="M904.4,540.6c0.6-24.1,4.1-47.3,10.2-70.6c2.4-9.1,4.4-19.7,11.3-26.5c7-6.9,17.6-7.1,26.6-9.4
			c18.1-4.5,34.9-14.2,47.9-27.6c6.5-6.8,12-14.8,19.6-20.4c7.8-5.7,17.4-6.7,26.8-6.1c10.7,0.7,22.1,2.2,32.2,5.7
			c10.4,3.6,19.9,9.3,29.4,14.7c0,0,1.5-6.1-0.2-7.1c-9-5.2-18-10.6-27.8-14.2c-9.5-3.5-19.8-4.9-29.8-6c-9.3-1-19.3-1-27.7,3.7
			c-8.3,4.7-14.1,12.8-20.3,19.7c-13.9,15.4-32.3,26.4-52.6,30.9c-8.6,1.9-18.1,2.5-24.7,9c-6.9,6.8-9.1,17.3-11.4,26.3
			c-6.6,25-10.4,49.9-11,75.7C902.8,541.3,904.3,545.6,904.4,540.6L904.4,540.6z"/>
	</g>
</g>
<g>
	<g>
		<path d="M1060.7,574.3c-12.3,8.7-21.7,19.4-29,32.6c-7.6,13.5-13,28-17.1,42.8c-4.8,17.5-8,35.3-11.5,53
			c-1.6,8.2-2.8,16.7-5.5,24.6c-2.7,8-8.2,12.6-16.5,14c-7.1,1.2-14.4,0.8-21.3,3.2c-6.9,2.3-13,6.3-19.2,10
			c-7.6,4.5-33.9,18.4-34.5,0.5c-0.6-18.7,0.7-37.5,3.9-55.9c2.9-16.8,6.5-33.4,5.6-50.5c-0.5-9-2.1-17.9-5.8-26.1
			c-3.5-7.8-8.4-14.9-11.3-23c-3.3-9.2,0.9-19.2,3.1-28.3c2.4-9.8,3.2-19.6,3.5-29.6c0-1.2,0.3-8.4-1.3-8.7c-1.8-0.3-1.8,3.8-1.8,5
			c-0.3,9.8-1.7,18.9-4.2,28.3c-2.2,8.4-4,16.8-3.9,25.5c0,8.2,1.5,16.2,4.8,23.8c3.4,7.6,8.1,14.5,11.1,22.3
			c6.5,17.2,0.1,36.5-2.7,53.9c-3.1,19-4.5,38.2-4.2,57.5c0.1,7.4-0.7,17,3.1,23.7c3.4,6.1,10.9,6.2,16.9,4.7
			c14.9-3.7,26-15.9,40.9-19.4c7.5-1.8,15.6-0.7,22.9-3.4c6.8-2.5,10.6-8.2,12.9-14.8c2.7-8,4.1-16.7,5.7-25
			c1.9-9.3,3.6-18.6,5.5-27.9c7.8-37.9,20.6-76.8,50.8-102.9C1063.2,582.6,1061.6,573.6,1060.7,574.3L1060.7,574.3z"/>
	</g>
</g>
<g>
	<g>
		<path d="M1052.4,470.7c12.1,17.3,32.2,27.2,53.2,27.8c22.2,0.6,43.7-8.8,60.7-22.6c9.8-8,18.5-17.3,29.6-23.4
			c4.5-2.5,9.2-3.9,14.1-5.5c4.2-1.4,6.6-3.8,7.2-8.3c1.2-9-2.4-16.2-11.6-18.1c-11.1-2.3-22.7-2.7-33.9-4.6
			c-13.1-2.3-26.1-5.4-38.6-10.1c-13.4-5.2-24.7-13.3-37-20.6c-0.9-0.5-2.3,8.5-0.3,9.7c9.2,5.5,17.7,11.9,27.3,16.6
			c9.6,4.7,19.7,8,30.1,10.5c10.2,2.4,20.5,4,30.9,5.5c5.2,0.8,10.4,1.5,15.6,2.1c2.1,0.3,4.1,0.5,6.2,0.9c3.4,0.7,5.1,2.4,7.9,3.9
			c1,0.5,1.4-1,0.7,0c-0.9,1.2-2.2,1.8-3.5,2.3c-1.7,0.8-3.7,1.1-5.5,1.7c-5.3,1.7-10.2,4.3-14.9,7.3c-8.7,5.6-15.9,13-23.8,19.7
			c-16.1,13.7-36.1,23.1-57.5,24c-21.3,1-43-7.3-56.9-23.7C1052.4,465.4,1051.6,469.6,1052.4,470.7L1052.4,470.7z"/>
	</g>
</g>
<g>
	<g>
		<path d="M997.4,1486.6c-27.9,27.4-69.9,38-107.5,42.7c-45.2,5.6-92,2.2-136.2-8.5c-23.9-5.8-48-13.7-69.2-26.4
			c-23.3-14-40.4-34.7-51.2-59.6c-21.7-50-21.8-108.7-11.2-161.3c21.7-107.7,90.2-198.3,171.8-268.8
			c85.5-73.8,190.2-123.6,269.2-205.2c35.3-36.4,65.3-79.4,80.2-128.3c14.6-47.8,15.9-101.7-1.5-149c-4.2-11.4-9.6-22.2-16.2-32.5
			c-0.9-1.4-1.6,4.2-1.6,4.4c-0.1,2.4-0.2,5.5,1.1,7.6c28,45.4,32.3,100.5,18.1,151.3c-14,50.3-44.4,94.6-80.3,131.9
			c-78.7,81.9-183.4,131.8-269,205.4c-81.7,70.3-149.3,159.9-172.9,266.7c-11.7,52.9-12.9,110.3,1.7,162.8
			c6.7,23.9,17.2,47.2,34.2,65.5c18.3,19.7,43.1,31.5,68.2,40c42.9,14.5,89.1,20.5,134.4,18.7c41-1.6,83.9-9.6,118.1-33.6
			c7.4-5.2,14.1-11.1,20.1-17.8C999,1491.6,997.7,1486.2,997.4,1486.6L997.4,1486.6z"/>
	</g>
</g>
<g>
	<g>
		<path d="M1332,1143.2c-9.9,81.6-30.1,162.1-67.8,235.5c-34.1,66.5-82.1,126-142.4,170.5c-29.5,21.8-61.8,39.9-96.1,52.9
			c-40.2,15.3-82.8,23.2-125.5,28.1c-81,9.4-169.5,13.1-242.6-29c-32.1-18.5-61.2-46.2-75.3-81.1c-6.4-15.9-9.2-32.6-4.2-49.2
			c4.4-14.6,12.4-28,23.2-38.8c6.1-6.1,13.1-11.4,20.6-15.7c2.1-1.2,0.2-10.2-0.2-10c-27.6,12.4-45.9,41.9-48.7,71.6
			c-3.8,39.5,16,77.3,43.2,104.6c60.1,60.2,149.6,70.4,230.4,65.6c45.7-2.7,91.8-7.9,136.2-19.3c38.8-10,75.7-25.7,109.8-46.7
			c65.1-40.2,118.6-97.6,157.3-163.3c43.1-73.3,68.2-156,79.8-240c1.5-10.8,2.6-21.5,3.6-32.4
			C1333.6,1145.3,1332.5,1138.8,1332,1143.2L1332,1143.2z"/>
	</g>
</g>
<g>
	<g>
		<path d="M1327.1,1563.2c-5.5,18.9-15.3,45.4-39.8,43.7c-10.9-0.8-19-9.3-26.3-16.6c-7.6-7.6-14.9-15.5-22.1-23.5
			c-28.4-31.9-53-67.1-74.1-104.1c-42.6-74.9-71-157.3-90.7-240.9c-21.1-89.5-35.6-191.8,20.6-272c10.1-14.4,28.1-37.2,48.5-29.6
			c10.1,3.7,14.9,14.4,18.2,23.8c3.9,11.1,6.6,22.7,8.4,34.3c7.3,47.5-1.9,96.3-14.2,142.1c-11.2,41.8-24.4,87.9-59.2,116.6
			c-15.9,13.1-35.9,22.1-56.8,22c-20.9-0.1-43.8-12.6-62.2,2.7c-9.2,7.7-16.5,18.3-24.1,27.4c-8,9.6-16.1,19.2-24.1,28.7
			c-15.6,18.6-30.9,37.4-46.9,55.7c-23.8,27.2-60.6,62.3-100.5,50.2c-8.1-2.4-15.5-7.3-19.8-14.8c-5-8.7-1.6-17.4,3.1-25.6
			c9.8-17,27.1-28.9,45-36.1c36.8-14.8,79.9-12.2,116.9,0.5c34.9,12,71.5,37.2,81.5,74.8c8.1,30.1-6.5,66.3-35.1,80
			c-39.3,18.8-82.8,27.8-126.3,28.9c-43.8,1-88.8-6.1-129.7-22.1c-32.6-12.7-61.7-34.3-78.9-65.2c-6.5-11.5-11-24.1-14-36.9
			c-0.6-2.7-1.8-2.4-2.4,0.1c-0.8,3.4-0.5,7.6,0.3,10.9c7,30.5,22.9,58.3,47.1,78.4c34.8,29,82,41.3,126,46.9
			c38.6,4.9,78.1,3.5,116.2-4.9c19.4-4.2,38.8-10,56.8-18.6c8.4-4,16.3-8.4,23-15.1c12.1-12.3,18.9-29,21.4-45.9
			c2.7-18,1.5-37.1-4.5-54.4c-6.5-18.5-19.4-34.5-34.6-46.6c-32.3-25.7-76.2-37.3-117.1-35.4c-38.1,1.8-87,19.2-98.6,60
			c-5.2,18.2-2.6,41.7,15.2,52c16.6,9.6,37.3,6.5,54-1c19.9-8.9,36.3-24.1,50.8-40c16.8-18.5,32.4-38.1,48.4-57.3
			c8.9-10.6,17.8-21.3,26.6-31.9c7.9-9.5,15.4-20.3,24.8-28.5c9.7-8.5,21.7-8.8,33.9-6.8c11.7,1.9,23.1,4.7,35.1,3.6
			c46.5-4.4,77-45.3,93-85.4c8.8-22.2,15.2-45.4,20.9-68.5c6.2-24.8,11-50.1,13.2-75.6c2.1-24.5,1.8-49.4-2.2-73.7
			c-2-12.1-4.9-24.1-8.8-35.8c-3.1-9.1-7.1-19.3-15.4-24.8c-19.4-13.1-40.1,8.4-50.9,22.8c-13.4,17.9-23.5,38.2-30.6,59.4
			c-15.8,47-17.1,97.5-11.5,146.4c5.6,49.3,17.1,98.2,30.7,146c12.5,44,27.7,87.3,46.4,129.1c18.5,41.3,40.5,81.1,66.7,118
			c13,18.3,26.9,35.9,42,52.5c7.7,8.5,15.6,16.8,23.9,24.7c7.6,7.3,16.3,13.9,27.5,12c22.8-3.8,30.9-28.8,36.2-47.9
			c0.6-2.1,0.6-4.5,0.2-6.6C1328.5,1564.3,1327.7,1561.2,1327.1,1563.2L1327.1,1563.2z"/>
	</g>
</g>
<g>
	<g>
		<path d="M1116.2,397.3c-8.3-5.4-16.5-11.4-25.3-15.9c-8.8-4.5-18.4-6.7-28.3-6.6c-1,0-0.9,6.5,0.2,6.4c9.3,0,18.4,1.8,26.8,5.8
			c9.3,4.5,17.8,10.9,26.4,16.5C1116.5,403.8,1117.5,398.1,1116.2,397.3L1116.2,397.3z"/>
	</g>
</g>
<rect x="5" y="1" class="st0" width="1988" height="1996"/>
</svg>
